STARTFONT 2.1
COMMENT
COMMENT Converted from OpenType font "Andika-Bold-Stripped.otf" by "otf2bdf 3.0".
COMMENT
FONT -FreeType-Andika-Bold-R-Normal--17-120-100-100-P-86-ISO10646-1
SIZE 12 100 100
FONTBOUNDINGBOX 18 17 -1 -4
STARTPROPERTIES 19
FOUNDRY "FreeType"
FAMILY_NAME "Andika"
WEIGHT_NAME "Bold"
SLANT "R"
SETWIDTH_NAME "Normal"
ADD_STYLE_NAME ""
PIXEL_SIZE 17
POINT_SIZE 120
RESOLUTION_X 100
RESOLUTION_Y 100
SPACING "P"
AVERAGE_WIDTH 86
CHARSET_REGISTRY "ISO10646"
CHARSET_ENCODING "1"
FONT_ASCENT 20
FONT_DESCENT 6
COPYRIGHT "Copyright (c) 2004-2022 SIL International"
_OTF_FONTFILE "Andika-Bold-Stripped.otf"
_OTF_PSNAME "Andika-Bold"
ENDPROPERTIES
CHARS 67
STARTCHAR 0020
ENCODING 32
SWIDTH 240 0
DWIDTH 4 0
BBX 0 0 0 0
BITMAP
ENDCHAR
STARTCHAR 002D
ENCODING 45
SWIDTH 420 0
DWIDTH 7 0
BBX 6 2 1 4
BITMAP
FC
FC
ENDCHAR
STARTCHAR 002F
ENCODING 47
SWIDTH 540 0
DWIDTH 9 0
BBX 8 15 0 -2
BITMAP
01
03
03
06
06
0C
0C
18
18
10
30
30
60
60
C0
ENDCHAR
STARTCHAR 0030
ENCODING 48
SWIDTH 600 0
DWIDTH 10 0
BBX 8 12 1 0
BITMAP
3C
7E
E7
C3
C3
C3
C3
C3
C3
E7
7E
7C
ENDCHAR
STARTCHAR 0031
ENCODING 49
SWIDTH 600 0
DWIDTH 10 0
BBX 7 12 2 0
BITMAP
70
F0
F0
30
30
30
30
30
30
30
FE
FE
ENDCHAR
STARTCHAR 0032
ENCODING 50
SWIDTH 600 0
DWIDTH 10 0
BBX 8 12 1 0
BITMAP
7C
FE
C7
07
07
06
0E
1C
38
70
FF
FF
ENDCHAR
STARTCHAR 0033
ENCODING 51
SWIDTH 600 0
DWIDTH 10 0
BBX 8 12 1 0
BITMAP
7C
FE
87
07
0E
3C
3E
07
03
83
FF
7C
ENDCHAR
STARTCHAR 0034
ENCODING 52
SWIDTH 600 0
DWIDTH 10 0
BBX 9 12 1 0
BITMAP
0600
0E00
1E00
3600
3600
6600
C600
FF80
FF80
0600
0600
0600
ENDCHAR
STARTCHAR 0035
ENCODING 53
SWIDTH 600 0
DWIDTH 10 0
BBX 8 12 1 0
BITMAP
7F
7F
60
60
78
7E
07
03
03
87
FE
FC
ENDCHAR
STARTCHAR 0036
ENCODING 54
SWIDTH 600 0
DWIDTH 10 0
BBX 8 12 1 0
BITMAP
1F
7F
60
C0
C8
FE
E3
C3
C3
E3
7F
3E
ENDCHAR
STARTCHAR 0037
ENCODING 55
SWIDTH 600 0
DWIDTH 10 0
BBX 8 12 1 0
BITMAP
FF
FF
07
06
0C
1C
18
38
30
30
70
60
ENDCHAR
STARTCHAR 0038
ENCODING 56
SWIDTH 600 0
DWIDTH 10 0
BBX 8 12 1 0
BITMAP
3C
7E
C3
C3
66
3C
7F
C3
C3
C3
FF
7E
ENDCHAR
STARTCHAR 0039
ENCODING 57
SWIDTH 600 0
DWIDTH 10 0
BBX 8 12 1 0
BITMAP
3C
FE
C7
C3
C3
EF
7F
03
03
06
FE
FC
ENDCHAR
STARTCHAR 003A
ENCODING 58
SWIDTH 360 0
DWIDTH 6 0
BBX 2 7 2 1
BITMAP
C0
C0
00
00
C0
C0
C0
ENDCHAR
STARTCHAR 0041
ENCODING 65
SWIDTH 720 0
DWIDTH 12 0
BBX 10 12 1 0
BITMAP
1E00
1E00
1E00
3700
3300
3300
7380
7F80
7F80
E1C0
C0C0
C0C0
ENDCHAR
STARTCHAR 0042
ENCODING 66
SWIDTH 660 0
DWIDTH 11 0
BBX 9 12 1 0
BITMAP
FE00
FF00
E380
E300
E300
FE00
FF00
E180
E180
E180
FF00
FE00
ENDCHAR
STARTCHAR 0043
ENCODING 67
SWIDTH 660 0
DWIDTH 11 0
BBX 9 12 1 0
BITMAP
1F00
7F80
6080
E000
C000
C000
C000
C000
E000
E080
7F80
3F00
ENDCHAR
STARTCHAR 0044
ENCODING 68
SWIDTH 720 0
DWIDTH 12 0
BBX 10 12 1 0
BITMAP
FE00
FF80
E380
E1C0
E0C0
E0C0
E0C0
E0C0
E1C0
E380
FF00
FE00
ENDCHAR
STARTCHAR 0045
ENCODING 69
SWIDTH 600 0
DWIDTH 10 0
BBX 8 12 1 0
BITMAP
FF
FF
E0
E0
E0
FE
FE
E0
E0
E0
FF
FF
ENDCHAR
STARTCHAR 0046
ENCODING 70
SWIDTH 600 0
DWIDTH 10 0
BBX 8 12 1 0
BITMAP
FF
FF
E0
E0
E0
FE
FE
E0
E0
E0
E0
E0
ENDCHAR
STARTCHAR 0047
ENCODING 71
SWIDTH 720 0
DWIDTH 12 0
BBX 10 12 1 0
BITMAP
1F80
7FC0
7080
E000
C000
C000
C7C0
C0C0
E0C0
E0C0
7FC0
3F80
ENDCHAR
STARTCHAR 0048
ENCODING 72
SWIDTH 720 0
DWIDTH 12 0
BBX 10 12 1 0
BITMAP
E1C0
E1C0
E1C0
E1C0
E1C0
FFC0
FFC0
E1C0
E1C0
E1C0
E1C0
E1C0
ENDCHAR
STARTCHAR 0049
ENCODING 73
SWIDTH 540 0
DWIDTH 9 0
BBX 6 12 1 0
BITMAP
FC
FC
30
30
30
30
30
30
30
30
FC
FC
ENDCHAR
STARTCHAR 004A
ENCODING 74
SWIDTH 480 0
DWIDTH 8 0
BBX 7 12 0 0
BITMAP
06
06
06
06
06
06
06
06
06
0E
FC
F8
ENDCHAR
STARTCHAR 004B
ENCODING 75
SWIDTH 720 0
DWIDTH 12 0
BBX 10 12 1 0
BITMAP
E380
E300
E600
EC00
F800
F800
F800
FC00
EE00
E700
E380
E1C0
ENDCHAR
STARTCHAR 004C
ENCODING 76
SWIDTH 540 0
DWIDTH 9 0
BBX 8 12 1 0
BITMAP
E0
E0
E0
E0
E0
E0
E0
E0
E0
E0
FF
FF
ENDCHAR
STARTCHAR 004D
ENCODING 77
SWIDTH 900 0
DWIDTH 15 0
BBX 13 12 1 0
BITMAP
7070
7070
7070
78F0
78F0
78F0
6DB0
EDB0
EDB0
C530
C738
C738
ENDCHAR
STARTCHAR 004E
ENCODING 78
SWIDTH 780 0
DWIDTH 13 0
BBX 10 12 1 0
BITMAP
E0C0
E0C0
F0C0
F8C0
D8C0
CCC0
CEC0
C6C0
C3C0
C3C0
C1C0
C0C0
ENDCHAR
STARTCHAR 004F
ENCODING 79
SWIDTH 720 0
DWIDTH 12 0
BBX 10 12 1 0
BITMAP
1E00
7F80
6180
E1C0
C0C0
C0C0
C0C0
C0C0
E1C0
E180
7F80
3E00
ENDCHAR
STARTCHAR 0050
ENCODING 80
SWIDTH 600 0
DWIDTH 10 0
BBX 9 12 1 0
BITMAP
FE00
FF00
E380
E380
E380
E300
FF00
FC00
E000
E000
E000
E000
ENDCHAR
STARTCHAR 0051
ENCODING 81
SWIDTH 780 0
DWIDTH 13 0
BBX 11 14 1 -2
BITMAP
1E00
7F80
6180
E1C0
C0C0
C0C0
C0C0
C0C0
E1C0
E180
7F80
3FC0
01E0
0060
ENDCHAR
STARTCHAR 0052
ENCODING 82
SWIDTH 660 0
DWIDTH 11 0
BBX 9 12 1 0
BITMAP
FE00
FF00
E300
E380
E300
FF00
FE00
EE00
E600
E700
E380
E180
ENDCHAR
STARTCHAR 0053
ENCODING 83
SWIDTH 600 0
DWIDTH 10 0
BBX 8 12 1 0
BITMAP
3E
7F
E0
C0
F0
7C
1F
07
03
83
FF
FC
ENDCHAR
STARTCHAR 0054
ENCODING 84
SWIDTH 600 0
DWIDTH 10 0
BBX 10 12 0 0
BITMAP
FFC0
FFC0
0C00
0C00
0C00
0C00
0C00
0C00
0C00
0C00
0C00
0C00
ENDCHAR
STARTCHAR 0055
ENCODING 85
SWIDTH 720 0
DWIDTH 12 0
BBX 10 12 1 0
BITMAP
E1C0
E1C0
E1C0
E1C0
E1C0
E1C0
E1C0
E1C0
E1C0
6180
7F80
3F00
ENDCHAR
STARTCHAR 0056
ENCODING 86
SWIDTH 720 0
DWIDTH 12 0
BBX 11 12 0 0
BITMAP
E060
6060
60E0
70C0
30C0
31C0
1980
1980
1B00
0F00
0F00
0E00
ENDCHAR
STARTCHAR 0057
ENCODING 87
SWIDTH 1020 0
DWIDTH 17 0
BBX 17 12 0 0
BITMAP
E1C380
61C300
61C300
714300
336700
336600
336600
323600
1E3400
1E3C00
1E1C00
0C1C00
ENDCHAR
STARTCHAR 0058
ENCODING 88
SWIDTH 660 0
DWIDTH 11 0
BBX 9 12 1 0
BITMAP
C180
6300
7700
3600
3E00
1C00
1C00
3E00
7600
6300
E380
C180
ENDCHAR
STARTCHAR 0059
ENCODING 89
SWIDTH 660 0
DWIDTH 11 0
BBX 10 12 0 0
BITMAP
E0C0
71C0
3180
3B80
1B00
0E00
0E00
0E00
0E00
0E00
0E00
0E00
ENDCHAR
STARTCHAR 005A
ENCODING 90
SWIDTH 600 0
DWIDTH 10 0
BBX 8 12 1 0
BITMAP
FF
FF
07
0E
0C
1C
38
30
60
E0
FF
FF
ENDCHAR
STARTCHAR 0061
ENCODING 97
SWIDTH 600 0
DWIDTH 10 0
BBX 8 8 1 0
BITMAP
3F
73
C3
C7
C7
CF
FB
73
ENDCHAR
STARTCHAR 0062
ENCODING 98
SWIDTH 600 0
DWIDTH 10 0
BBX 8 13 1 0
BITMAP
C0
C0
C0
C0
C0
DE
FF
E3
C3
C3
C3
FE
FE
ENDCHAR
STARTCHAR 0063
ENCODING 99
SWIDTH 480 0
DWIDTH 8 0
BBX 6 8 1 0
BITMAP
7C
E4
C0
C0
C0
C0
FC
7C
ENDCHAR
STARTCHAR 0064
ENCODING 100
SWIDTH 600 0
DWIDTH 10 0
BBX 9 13 1 0
BITMAP
0300
0300
0300
0300
0300
7F00
FF00
C300
C300
C300
C700
FF00
7B80
ENDCHAR
STARTCHAR 0065
ENCODING 101
SWIDTH 540 0
DWIDTH 9 0
BBX 7 8 1 0
BITMAP
7C
E6
C6
FE
C0
C0
FE
7E
ENDCHAR
STARTCHAR 0066
ENCODING 102
SWIDTH 420 0
DWIDTH 7 0
BBX 7 13 0 0
BITMAP
1E
3E
30
30
30
FC
30
30
30
30
30
30
30
ENDCHAR
STARTCHAR 0067
ENCODING 103
SWIDTH 600 0
DWIDTH 10 0
BBX 8 12 1 -4
BITMAP
7F
7F
C7
C7
C7
C7
FF
77
07
46
FE
38
ENDCHAR
STARTCHAR 0068
ENCODING 104
SWIDTH 600 0
DWIDTH 10 0
BBX 8 13 1 0
BITMAP
C0
C0
C0
C0
C0
DE
FF
E3
C3
C3
C3
C3
C3
ENDCHAR
STARTCHAR 0069
ENCODING 105
SWIDTH 300 0
DWIDTH 5 0
BBX 3 13 1 0
BITMAP
40
E0
E0
00
00
E0
E0
E0
E0
E0
E0
E0
E0
ENDCHAR
STARTCHAR 006A
ENCODING 106
SWIDTH 300 0
DWIDTH 5 0
BBX 5 17 -1 -4
BITMAP
18
18
18
00
00
18
18
18
18
18
18
18
18
18
38
F0
E0
ENDCHAR
STARTCHAR 006B
ENCODING 107
SWIDTH 540 0
DWIDTH 9 0
BBX 8 13 1 0
BITMAP
C0
C0
C0
C0
C0
CE
DC
D8
F0
D8
DC
CE
C7
ENDCHAR
STARTCHAR 006C
ENCODING 108
SWIDTH 300 0
DWIDTH 5 0
BBX 3 13 1 0
BITMAP
E0
E0
E0
E0
E0
E0
E0
E0
E0
E0
E0
E0
E0
ENDCHAR
STARTCHAR 006D
ENCODING 109
SWIDTH 840 0
DWIDTH 14 0
BBX 12 8 1 0
BITMAP
DEF0
FFF0
E630
E630
E630
E630
E630
E630
ENDCHAR
STARTCHAR 006E
ENCODING 110
SWIDTH 600 0
DWIDTH 10 0
BBX 8 8 1 0
BITMAP
DE
FF
E3
C3
C3
C3
C3
C3
ENDCHAR
STARTCHAR 006F
ENCODING 111
SWIDTH 540 0
DWIDTH 9 0
BBX 8 8 1 0
BITMAP
7C
EE
C7
C7
C7
C6
FE
7C
ENDCHAR
STARTCHAR 0070
ENCODING 112
SWIDTH 600 0
DWIDTH 10 0
BBX 8 12 1 -4
BITMAP
DE
F7
E3
C3
C3
C3
FF
FE
C0
C0
C0
E0
ENDCHAR
STARTCHAR 0071
ENCODING 113
SWIDTH 600 0
DWIDTH 10 0
BBX 8 12 1 -4
BITMAP
7F
77
C7
C7
C7
C7
FF
7F
07
07
07
07
ENDCHAR
STARTCHAR 0072
ENCODING 114
SWIDTH 480 0
DWIDTH 8 0
BBX 7 8 1 0
BITMAP
DE
FE
E6
E0
C0
C0
C0
C0
ENDCHAR
STARTCHAR 0073
ENCODING 115
SWIDTH 480 0
DWIDTH 8 0
BBX 7 8 1 0
BITMAP
7C
C4
C0
FC
1E
86
FE
FC
ENDCHAR
STARTCHAR 0074
ENCODING 116
SWIDTH 420 0
DWIDTH 7 0
BBX 7 11 0 0
BITMAP
30
30
30
FE
30
30
30
30
30
3E
3E
ENDCHAR
STARTCHAR 0075
ENCODING 117
SWIDTH 600 0
DWIDTH 10 0
BBX 8 8 1 0
BITMAP
C3
C3
C3
C3
C3
E7
FF
7B
ENDCHAR
STARTCHAR 0076
ENCODING 118
SWIDTH 540 0
DWIDTH 9 0
BBX 9 8 0 0
BITMAP
E380
6300
7300
3600
3600
1400
1C00
1C00
ENDCHAR
STARTCHAR 0077
ENCODING 119
SWIDTH 780 0
DWIDTH 13 0
BBX 11 8 1 0
BITMAP
CE60
CE60
CE60
DAC0
7BC0
7BC0
73C0
3180
ENDCHAR
STARTCHAR 0078
ENCODING 120
SWIDTH 600 0
DWIDTH 10 0
BBX 8 8 1 0
BITMAP
E7
66
3C
38
3C
6C
E6
C7
ENDCHAR
STARTCHAR 0079
ENCODING 121
SWIDTH 540 0
DWIDTH 9 0
BBX 9 12 0 -4
BITMAP
6380
6300
7300
3600
3600
1E00
1C00
1C00
1C00
9800
F800
E000
ENDCHAR
STARTCHAR 007A
ENCODING 122
SWIDTH 540 0
DWIDTH 9 0
BBX 7 8 1 0
BITMAP
FE
0C
1C
38
30
60
FE
FE
ENDCHAR
STARTCHAR 00B0
ENCODING 176
SWIDTH 360 0
DWIDTH 6 0
BBX 5 5 0 7
BITMAP
78
48
C8
78
30
ENDCHAR
ENDFONT
